<svg width="21" height="21" viewBox="0 0 21 21" fill="none" xmlns="http://www.w3.org/2000/svg">
<path d="M18.7031 10.5C18.7031 11.94 18.3241 13.3545 17.6041 14.6016L10.5 10.5H18.7031Z" fill="#F45542"/>
<path d="M17.6036 14.6024C16.8835 15.8493 15.8479 16.8848 14.6007 17.6046L10.5 10.5L17.6036 14.6024Z" fill="#DD3242"/>
<path d="M14.6017 17.6045C13.3546 18.3244 11.9399 18.7033 10.5 18.7031L10.5009 10.5L14.6017 17.6045Z" fill="#AF2F79"/>
<path d="M2.29688 10.5C2.29688 11.94 2.6759 13.3545 3.39589 14.6016L10.5 10.5H2.29688Z" fill="#2656AB"/>
<path d="M3.39844 14.6024C4.11855 15.8493 5.15421 16.8848 6.40134 17.6046L10.5021 10.5L3.39844 14.6024Z" fill="#7943A3"/>
<path d="M6.39844 17.6045C7.64554 18.3244 9.06017 18.7033 10.5001 18.7031L10.4992 10.5L6.39844 17.6045Z" fill="#A23CA2"/>
<path d="M2.29688 10.5C2.29688 9.06004 2.6759 7.64548 3.39589 6.39844L10.5 10.5H2.29688Z" fill="#019A85"/>
<path d="M3.39844 6.39771C4.11855 5.15075 5.15421 4.11533 6.40134 3.39551L10.5021 10.5001L3.39844 6.39771Z" fill="#01AE5C"/>
<path d="M6.39844 3.39546C7.64554 2.67561 9.06017 2.29673 10.5001 2.29688L10.4992 10.5L6.39844 3.39546Z" fill="#A1CF49"/>
<path d="M18.7031 10.5C18.7031 9.06004 18.3241 7.64548 17.6041 6.39844L10.5 10.5H18.7031Z" fill="#F97827"/>
<path d="M17.6036 6.39771C16.8835 5.15075 15.8479 4.11533 14.6007 3.39551L10.5 10.5001L17.6036 6.39771Z" fill="#FCA313"/>
<path d="M14.6017 3.39546C13.3546 2.67561 11.9399 2.29673 10.5 2.29688L10.5009 10.5L14.6017 3.39546Z" fill="#FFE503"/>
<path d="M10.4961 16.6523C13.8939 16.6523 16.6484 13.8978 16.6484 10.5C16.6484 7.10215 13.8939 4.34766 10.4961 4.34766C7.09825 4.34766 4.34375 7.10215 4.34375 10.5C4.34375 13.8978 7.09825 16.6523 10.4961 16.6523Z" fill="white" fill-opacity="0.25"/>
<path d="M10.4922 14.6016C12.7574 14.6016 14.5938 12.7652 14.5938 10.5C14.5938 8.23477 12.7574 6.39844 10.4922 6.39844C8.22696 6.39844 6.39062 8.23477 6.39062 10.5C6.39062 12.7652 8.22696 14.6016 10.4922 14.6016Z" fill="white" fill-opacity="0.25"/>
<path d="M10.4961 12.5508C11.6287 12.5508 12.5469 11.6326 12.5469 10.5C12.5469 9.36738 11.6287 8.44922 10.4961 8.44922C9.36348 8.44922 8.44531 9.36738 8.44531 10.5C8.44531 11.6326 9.36348 12.5508 10.4961 12.5508Z" fill="white" fill-opacity="0.25"/>
</svg>
