<svg width="16" height="16" viewBox="0 0 16 16" fill="none" xmlns="http://www.w3.org/2000/svg">
<g clip-path="url(#clip0_5596_608)">
<path fill-rule="evenodd" clip-rule="evenodd" d="M6.58951 7.2L7.24201 9.06432C7.38797 9.48128 7.84435 9.70104 8.26133 9.55512C8.67837 9.40912 8.89813 8.95272 8.75221 8.53568L6.08432 0.913264C5.89287 0.366264 5.37663 0 4.79709 0C4.21756 0 3.70132 0.366263 3.50986 0.913264L0.842006 8.53568C0.696048 8.95272 0.91579 9.40912 1.33281 9.55512C1.74984 9.70104 2.20622 9.48128 2.35218 9.06432L3.00468 7.2H6.58951ZM6.02951 5.6L4.79709 2.07882L3.56468 5.6H6.02951Z" fill="#212121"/>
<path fill-rule="evenodd" clip-rule="evenodd" d="M12.3938 4C12.8806 4 13.3384 4.12425 13.7372 4.34276C13.8818 4.13556 14.1219 4 14.3938 4C14.8356 4 15.1938 4.35818 15.1938 4.8V8.8C15.1938 9.24184 14.8356 9.6 14.3938 9.6C14.1219 9.6 13.8818 9.46448 13.7372 9.25728C13.3384 9.47576 12.8806 9.6 12.3938 9.6C10.8474 9.6 9.59375 8.3464 9.59375 6.8C9.59375 5.2536 10.8474 4 12.3938 4ZM12.3938 8C13.0565 8 13.5938 7.46274 13.5938 6.8C13.5938 6.13726 13.0565 5.6 12.3938 5.6C11.731 5.6 11.1938 6.13726 11.1938 6.8C11.1938 7.46274 11.731 8 12.3938 8Z" fill="#212121"/>
<path d="M1.59688 11.2002C1.15504 11.2002 0.796875 11.5584 0.796875 12.0002C0.796875 12.442 1.15504 12.8002 1.59688 12.8002H14.3969C14.8387 12.8002 15.1969 12.442 15.1969 12.0002C15.1969 11.5584 14.8387 11.2002 14.3969 11.2002H1.59688Z" fill="#212121"/>
<path d="M1.59688 14.4004C1.15504 14.4004 0.796875 14.7586 0.796875 15.2004C0.796875 15.6422 1.15504 16.0004 1.59688 16.0004H11.1969C11.6387 16.0004 11.9969 15.6422 11.9969 15.2004C11.9969 14.7586 11.6387 14.4004 11.1969 14.4004H1.59688Z" fill="#212121"/>
</g>
<defs>
<clipPath id="clip0_5596_608">
<rect width="16" height="16" fill="white"/>
</clipPath>
</defs>
</svg>
