<svg width="21" height="21" viewBox="0 0 21 21" fill="none" xmlns="http://www.w3.org/2000/svg">
<g clip-path="url(#clip0_5397_1297)">
<path d="M12.5166 10.7179C12.5166 10.6696 12.4902 10.6251 12.4477 10.6018L8.79433 8.60373L6.79625 4.95034C6.74968 4.86551 6.61034 4.86551 6.56414 4.95034L4.56607 8.60373L0.91268 10.6018C0.87036 10.6251 0.84375 10.6696 0.84375 10.7179C0.84375 10.7661 0.870177 10.8112 0.91268 10.8345L4.56607 12.8331L6.56415 16.4865C6.58743 16.5288 6.63197 16.5554 6.6802 16.5554C6.72843 16.5554 6.77297 16.529 6.79625 16.4865L8.79433 12.8331L12.4477 10.8345C12.4908 10.811 12.5166 10.7661 12.5166 10.7179Z" fill="white"/>
<path d="M10.649 4.46896L12.5476 5.50716L13.585 7.40536C13.6012 7.43471 13.632 7.45316 13.6659 7.45316C13.6997 7.45316 13.7306 7.43483 13.7467 7.40536L14.7856 5.50716L16.6834 4.46896C16.7127 4.45281 16.7312 4.42193 16.7312 4.38849C16.7312 4.35505 16.7128 4.32418 16.6834 4.30803L14.7856 3.27019L13.7467 1.37199C13.7144 1.31253 13.6174 1.31317 13.5854 1.37199L12.5479 3.27019L10.6494 4.30803C10.62 4.32418 10.6016 4.35505 10.6016 4.38849C10.6016 4.42193 10.6196 4.45269 10.649 4.46896Z" fill="white"/>
<path d="M19.7878 15.3831L17.1776 13.9557L15.7507 11.3451C15.7313 11.3099 15.6944 11.2878 15.6539 11.2878C15.6134 11.2878 15.5764 11.3098 15.5571 11.3451L14.1293 13.9557L11.5182 15.3831C11.483 15.4024 11.4609 15.4394 11.4609 15.4799C11.4609 15.5204 11.4829 15.5574 11.5182 15.5767L14.1293 17.005L15.5571 19.6152C15.5764 19.6503 15.6134 19.6724 15.6539 19.6724C15.6944 19.6724 15.7313 19.6505 15.7507 19.6152L17.1776 17.005L19.7878 15.5767C19.8229 15.5574 19.845 15.5204 19.845 15.4799C19.845 15.4394 19.8229 15.4024 19.7878 15.3831Z" fill="white"/>
</g>
<defs>
<clipPath id="clip0_5397_1297">
<rect width="20" height="20" fill="white" transform="translate(0.34375 0.5)"/>
</clipPath>
</defs>
</svg>
