<svg width="17" height="17" viewBox="0 0 17 17" fill="none" xmlns="http://www.w3.org/2000/svg">
<path d="M1.64245 8.7814C0.242222 7.10304 0.0223966 5.60551 0.949154 4.2198C1.85791 2.86031 3.31759 2.42908 5.3222 2.96999C5.39966 2.79397 5.47984 2.60778 5.56276 2.42266C6.2375 0.910691 7.41572 0.0525151 9.09578 0.00222305C10.7426 -0.046999 11.9491 0.722898 12.751 2.14017C12.8868 2.3804 13.1879 2.65272 13.4432 2.68589C14.9961 2.8876 16.1236 3.6377 16.7013 5.0646C17.2773 6.48776 17.0073 7.8082 16.0031 8.98257C15.9267 9.07192 15.8542 9.16448 15.9851 9.23938C16.1405 10.1286 16.4831 11.0322 16.4138 11.9043C16.254 13.9149 14.598 15.2332 12.5415 15.1359C12.0544 15.1129 11.7708 15.2343 11.4593 15.6104C9.79835 17.6152 6.68697 17.4151 5.26656 15.2407C5.16292 15.0824 5.07129 14.9165 4.94201 14.7009C3.86307 15.0792 2.73885 15.2086 1.76082 14.5436C1.18971 14.1552 0.64478 13.6009 0.335498 12.9985C-0.407981 11.5512 0.108581 10.0403 1.64354 8.7814H1.64245Z" fill="#212121"/>
</svg>
